<?xml version="1.0" encoding="utf-8"?>
<!-- Generator: Adobe Illustrator 23.1.1, SVG Export Plug-In . SVG Version: 6.00 Build 0)  -->
<svg version="1.1" id="Layer_1" xmlns="http://www.w3.org/2000/svg" xmlns:xlink="http://www.w3.org/1999/xlink" x="0px" y="0px"
	 viewBox="0 0 82.8 80" style="enable-background:new 0 0 82.8 80;" xml:space="preserve">
<style type="text/css">
	.st0{fill:#41AB34;}
	.st1{fill:#EC6790;}
	.st2{fill-rule:evenodd;clip-rule:evenodd;}
</style>
<polygon class="st0" points="3,48 3,62 6,62 6,59.1 10,59.1 10,62 17,62 17,48 "/>
<polygon class="st1" points="9,62 9,68 6,68 6,62 3,62 3,76 17,76 17,62 "/>
<g>
	<polygon points="9,56 11,56 11,54 13,54 13,52 11,52 11,50 9,50 9,52 7,52 7,54 9,54 	"/>
	<rect x="7" y="72" width="6" height="2"/>
	<path d="M62,22h-1v-3c0-1.7-1.3-3-3-3s-3,1.3-3,3v3h-2v-3c0-1.7-1.3-3-3-3s-3,1.3-3,3v3h-1c-0.6,0-1,0.4-1,1v2c0,3.1,1.6,5.9,4,7.5
		V37c0,0.6,0.4,1,1,1h3v29c0,5-4,9-9,9s-9-4-9-9V27c0-6.1-4.9-11-11-11s-11,4.9-11,11v15h-1c-0.6,0-1,0.4-1,1v3H9v-3
		c0-0.6-0.4-1-1-1H4c-0.6,0-1,0.4-1,1v3H2c-0.6,0-1,0.4-1,1v30c0,0.6,0.4,1,1,1h16c0.6,0,1-0.4,1-1V47c0-0.6-0.4-1-1-1h-1v-3
		c0-0.6-0.4-1-1-1h-1V27c0-5,4-9,9-9s9,4,9,9v40c0,6.1,4.9,11,11,11s11-4.9,11-11V38h3c0.6,0,1-0.4,1-1v-4.5c2.4-1.6,4-4.4,4-7.5v-2
		C63,22.4,62.6,22,62,22z M5,44h2v2H5V44z M17,48v14h-6v-3c0-0.6-0.4-1-1-1H6c-0.6,0-1,0.4-1,1v3H3V48H17z M9,60v8H7v-8H9z M3,76V64
		h2v5c0,0.6,0.4,1,1,1h4c0.6,0,1-0.4,1-1v-5h6v12H3z M13,46v-2h2v2H13z M57,19c0-0.6,0.4-1,1-1s1,0.4,1,1v3h-2V19z M49,19
		c0-0.6,0.4-1,1-1s1,0.4,1,1v3h-2V19z M57,36h-6v-2.5c0.9,0.3,1.9,0.5,3,0.5s2.1-0.2,3-0.5V36z M61,25c0,3.9-3.1,7-7,7s-7-3.1-7-7
		v-1h14V25z"/>
</g>
<g>
	<g>
		<g>
			<path class="st2" d="M72.8,65.1c-0.6,0.6-0.6,1.5,0,2.1c0.3,0.3,0.7,0.4,1.1,0.4s0.8-0.1,1.1-0.4c0.6-0.6,0.6-1.5,0-2.1
				C74.3,64.5,73.4,64.5,72.8,65.1L72.8,65.1z"/>
			<path class="st2" d="M73.9,60.9c-1.5,0-3,0.7-4,1.9c-0.4,0.4-0.3,1,0.1,1.4c0.2,0.2,0.4,0.2,0.6,0.2c0.3,0,0.6-0.1,0.8-0.4
				c0.6-0.7,1.5-1.1,2.5-1.1c1,0,1.9,0.4,2.5,1.1c0.4,0.4,1,0.5,1.4,0.1c0.4-0.4,0.5-1,0.1-1.4C76.9,61.5,75.4,60.9,73.9,60.9
				L73.9,60.9z"/>
			<path class="st2" d="M80.4,60.1c-1.7-1.8-4.1-2.9-6.6-2.9c-2.5,0-4.9,1.1-6.6,2.9c-0.4,0.4-0.3,1,0.1,1.4
				c0.2,0.2,0.4,0.3,0.7,0.3c0.3,0,0.5-0.1,0.7-0.3c1.3-1.4,3.2-2.2,5.1-2.2c1.9,0,3.8,0.8,5.1,2.2c0.4,0.4,1,0.4,1.4,0.1
				C80.8,61.1,80.8,60.5,80.4,60.1L80.4,60.1z"/>
		</g>
	</g>
</g>
</svg>
