<?xml version="1.0" encoding="utf-8"?>
<!-- Generator: Adobe Illustrator 23.1.1, SVG Export Plug-In . SVG Version: 6.00 Build 0)  -->
<svg version="1.1" xmlns="http://www.w3.org/2000/svg" xmlns:xlink="http://www.w3.org/1999/xlink" x="0px" y="0px"
	 viewBox="0 0 100 125" style="enable-background:new 0 0 100 125;" xml:space="preserve">
<style type="text/css">
	.st0{fill:#FFFFFF;}
</style>
<g id="Layer_2">
</g>
<g id="Layer_1">
	<g>
		<path class="st0" d="M50,36.7c1.6,0,3.1-0.6,4.2-1.7l22.3-22.3c2.3-2.3,2.3-6.1,0-8.4s-6.1-2.3-8.4,0l-18,18l-18-18
			C29.8,2,26,2,23.7,4.3C22.5,5.5,22,7,22,8.5s0.6,3.1,1.7,4.2L45.8,35C46.9,36.1,48.4,36.7,50,36.7z"/>
		<path class="st0" d="M54.2,65.4l22.3-22.3c2.3-2.3,2.3-6.1,0-8.4s-6.1-2.3-8.4,0l-18,18l-18-18c-2.3-2.3-6.1-2.3-8.4,0
			c-1.2,1.2-1.7,2.7-1.7,4.2s0.6,3.1,1.7,4.2L46,65.4C48.1,67.7,51.9,67.7,54.2,65.4z"/>
		<path class="st0" d="M54.2,95.8l22.3-22.3c2.3-2.3,2.3-6.1,0-8.4c-2.3-2.3-6.1-2.3-8.4,0l-18,18L32,65c-2.3-2.3-6.1-2.3-8.4,0
			c-1.2,1.2-1.7,2.7-1.7,4.2s0.6,3.1,1.7,4.2l22.3,22.3C48.1,98.1,51.9,98.1,54.2,95.8z"/>
	</g>
</g>
</svg>
